#!OML:ASF I:\Actors\actors\Patient Classification 1\Patient 1\Session 1\Subject1.ASF
:FULLY-SPECIFIED
:DEGREES
87
root 0.0416575 17.5004 8.17665 10.9146 1.90353 -8.13333
lowerback -1.13523 0.512766 3.48252
upperback -9.2934 0.957642 1.59287
thorax -9.13314 0.276918 -0.322269
lowerneck 4.91601 -15.556 -15.1552
upperneck 9.13678 -23.5571 19.2342
head 6.08562 -11.7045 6.80298
rclavicle 9.34288e-015 1.27222e-014
rhumerus -45.2179 -32.854 -61.3627
rradius 25.2683
rwrist 44.8724
rhand 10.9783 -34.3834
rfingers 7.12502
rthumb 36.0536 -60.6867
lclavicle 9.34288e-015 1.27222e-014
lhumerus -44.2649 27.4705 69.4038
lradius 22.8473
lwrist -28.2099
lhand -15.8924 -7.71133
lfingers 7.12502
lthumb 10.3039 22.0163
rfemur -6.21416 24.8534 22.8156
rtibia 1.98168
rfoot -12.9377 -27.336
rtoes 4.74385
lfemur -0.135265 -48.7757 -8.43771
ltibia -4.12356
lfoot -24.1284 55.2182
ltoes 13.4644
88
root 0.0412724 17.5005 8.17583 10.9357 1.92424 -8.14841
lowerback -1.16346 0.51581 3.49026
upperback -9.28901 0.961283 1.60303
thorax -9.11159 0.278974 -0.315863
lowerneck 4.93458 -15.5411 -15.143
upperneck 9.14792 -23.5441 19.2672
head 6.08646 -11.6978 6.8155
rclavicle -8.84592e-015 0
rhumerus -45.2978 -32.901 -61.4589
rradius 25.2704
rwrist 44.9085
rhand 11.155 -34.5081
rfingers 7.12502
rthumb 36.221 -60.77
lclavicle -8.84592e-015 0
lhumerus -44.192 27.42 69.5369
lradius 22.876
lwrist -28.1001
lhand -15.9964 -7.63272
lfingers 7.12502
lthumb 10.2036 22.0998
rfemur -6.26972 24.8293 22.8193
rtibia 2.02258
rfoot -12.9606 -27.325
rtoes 4.76902
lfemur -0.219887 -48.6829 -8.34776
ltibia -4.13378
lfoot -24.0041 55.1588
ltoes 13.2542
89
root 0.0408794 17.5009 8.17492 10.9494 1.93283 -8.16689
lowerback -1.17089 0.502332 3.47702
upperback -9.28865 0.94506 1.64213
thorax -9.10817 0.273942 -0.265946
lowerneck 4.93438 -15.5124 -15.1472
upperneck 9.1815 -23.5068 19.2524
head 6.08863 -11.6793 6.81686
rclavicle -1.5704e-014 2.8625e-014
rhumerus -45.3463 -32.9901 -61.4705
rradius 25.1636
rwrist 45.1068
rhand 11.2651 -34.4727
rfingers 7.12502
rthumb 36.3253 -60.7087
lclavicle -1.5704e-014 2.8625e-014
lhumerus -44.162 27.3244 69.7187
lradius 22.9294
lwrist -27.8865
lhand -16.1599 -7.50882
lfingers 7.12502
lthumb 10.0459 22.2314
rfemur -6.31791 24.8201 22.8334
rtibia 2.0794
rfoot -12.9563 -27.3179
rtoes 4.72557
lfemur -0.279132 -48.6064 -8.27124
ltibia -4.13494
lfoot -23.92 55.0756
ltoes 13.0641
90
root 0.0411289 17.5005 8.1761 10.9449 1.92975 -8.15038
lowerback -1.17434 0.497392 3.44886
upperback -9.29145 0.938509 1.65995
thorax -9.10994 0.273747 -0.230934
lowerneck 4.93199 -15.5023 -15.2023
upperneck 9.25815 -23.5114 19.2749
head 6.12335 -11.6802 6.82888
rclavicle 0 -1.51076e-014
rhumerus -45.4097 -33.0423 -61.4956
rradius 25.0554
rwrist 45.172
rhand 11.2369 -34.3867
rfingers 7.12502
rthumb 36.2986 -60.6293
lclavicle 0 -1.51076e-014
lhumerus -44.1715 27.2512 69.841
lradius 23.0019
lwrist -27.7911
lhand -16.1798 -7.40947
lfingers 7.12502
lthumb 10.0267 22.3317
rfemur -6.28667 24.8636 22.8203
rtibia 2.05074
rfoot -12.9593 -27.3471
rtoes 4.8187
lfemur -0.225254 -48.7175 -8.33672
ltibia -4.13807
lfoot -23.9088 55.163
ltoes 12.9681
91
root 0.0416661 17.5004 8.17709 10.9252 1.92899 -8.12345
lowerback -1.16265 0.510559 3.44542
upperback -9.28411 0.954662 1.63489
thorax -9.10766 0.280883 -0.256766
lowerneck 4.90337 -15.5353 -15.1897
upperneck 9.34124 -23.577 19.3207
head 6.17057 -11.7059 6.82751
rclavicle -7.95139e-015 -1.90833e-014
rhumerus -45.497 -33.077 -61.5849
rradius 25.0302
rwrist 45.1189
rhand 11.223 -34.4077
rfingers 7.12502
rthumb 36.2854 -60.6536
lclavicle -7.95139e-015 -1.90833e-014
lhumerus -44.1181 27.1545 69.9384
lradius 23.0395
lwrist -27.7215
lhand -16.1993 -7.44334
lfingers 7.12502
lthumb 10.0079 22.2987
rfemur -6.23327 24.8872 22.8005
rtibia 2.00047
rfoot -12.9677 -27.3737
rtoes 4.87664
lfemur -0.157235 -48.8096 -8.43137
ltibia -4.13367
lfoot -23.8624 55.258
ltoes 12.9879
92
root 0.041534 17.5006 8.17619 10.9421 1.92808 -8.1553
lowerback -1.17087 0.528852 3.49116
upperback -9.28471 0.979831 1.62145
thorax -9.10221 0.289148 -0.298053
lowerneck 4.86394 -15.5688 -15.0651
upperneck 9.38593 -23.6154 19.2692
head 6.17617 -11.718 6.78554
rclavicle -8.34896e-015 4.49253e-014
rhumerus -45.5936 -33.0902 -61.6877
rradius 25.0582
rwrist 45.1387
rhand 11.4069 -34.4007
rfingers 7.12502
rthumb 36.4595 -60.603
lclavicle -8.34896e-015 4.49253e-014
lhumerus -44.024 27.0469 70.0403
lradius 23.0228
lwrist -27.5783
lhand -16.2876 -7.68591
lfingers 7.12502
lthumb 9.92266 22.0602
rfemur -6.27424 24.8553 22.8281
rtibia 2.02548
rfoot -12.9285 -27.3554
rtoes 4.67234
lfemur -0.209108 -48.7574 -8.34525
ltibia -4.13055
lfoot -24.0714 55.1747
ltoes 13.4281
93
root 0.0409405 17.501 8.17447 10.9729 1.91258 -8.21807
lowerback -1.18627 0.534021 3.53445
upperback -9.2982 0.989906 1.64454
thorax -9.10817 0.291627 -0.298157
lowerneck 4.83716 -15.5845 -15
upperneck 9.46002 -23.6321 19.1847
head 6.1877 -11.7224 6.74499
rclavicle -4.27387e-015 -2.38542e-014
rhumerus -45.6871 -33.0654 -61.7684
rradius 25.1025
rwrist 45.2226
rhand 11.6687 -34.4042
rfingers 7.12502
rthumb 36.7073 -60.5438
lclavicle -4.27387e-015 -2.38542e-014
lhumerus -44.0034 26.9716 70.1167
lradius 23.0366
lwrist -27.3931
lhand -16.2748 -8.06343
lfingers 7.12502
lthumb 9.93502 21.6821
rfemur -6.35815 24.845 22.8779
rtibia 2.08712
rfoot -12.8936 -27.3268
rtoes 4.53545
lfemur -0.312567 -48.615 -8.17701
ltibia -4.13204
lfoot -24.216 55.0176
ltoes 13.66
94
root 0.0409958 17.5012 8.17327 10.9855 1.87849 -8.2417
lowerback -1.18318 0.525538 3.53774
upperback -9.30876 0.981444 1.6774
thorax -9.12274 0.288432 -0.264581
lowerneck 4.81922 -15.5878 -15.0215
upperneck 9.52607 -23.6425 19.1519
head 6.21151 -11.7259 6.73325
rclavicle 1.97791e-014 7.15625e-015
rhumerus -45.7173 -33.0378 -61.814
rradius 25.0703
rwrist 45.3483
rhand 11.8084 -34.3936
rfingers 7.12502
rthumb 36.8395 -60.4994
lclavicle 1.97791e-014 7.15625e-015
lhumerus -44.0518 27.0014 70.1286
lradius 23.064
lwrist -27.3197
lhand -16.2209 -8.33343
lfingers 7.12502
lthumb 9.987 21.4096
rfemur -6.3993 24.8723 22.8873
rtibia 2.1149
rfoot -12.8938 -27.3119
rtoes 4.55061
lfemur -0.356129 -48.5217 -8.11332
ltibia -4.13393
lfoot -24.0751 54.9891
ltoes 13.3936
95
root 0.0420486 17.5011 8.17268 10.9941 1.84385 -8.24486
lowerback -1.18007 0.523344 3.54826
upperback -9.31221 0.98059 1.69779
thorax -9.12886 0.287993 -0.248774
lowerneck 4.86368 -15.5815 -15.0275
upperneck 9.4784 -23.6339 19.1761
head 6.19151 -11.7254 6.74778
rclavicle 1.5207e-014 -9.54166e-015
rhumerus -45.7049 -33.0746 -61.7949
rradius 24.9566
rwrist 45.5378
rhand 12.0197 -34.3661
rfingers 7.12502
rthumb 37.0394 -60.4204
lclavicle 1.5207e-014 -9.54166e-015
lhumerus -44.056 27.0012 70.1708
lradius 23.0618
lwrist -27.2734
lhand -16.2275 -8.39711
lfingers 7.12502
lthumb 9.98065 21.3463
rfemur -6.41886 24.9573 22.876
rtibia 2.13011
rfoot -12.9237 -27.3495
rtoes 4.61458
lfemur -0.35754 -48.5245 -8.10892
ltibia -4.14496
lfoot -23.8854 55.0716
ltoes 13.0756
96
root 0.043499 17.5007 8.17235 11.0008 1.80859 -8.21993
lowerback -1.18866 0.527205 3.53971
upperback -9.30706 0.984842 1.6996
thorax -9.11797 0.291001 -0.242338
lowerneck 4.96881 -15.5524 -15.0161
upperneck 9.34806 -23.5907 19.245
head 6.13303 -11.7127 6.78643
rclavicle -1.01877e-014 -2.22639e-014
rhumerus -45.6779 -33.1166 -61.7892
rradius 24.868
rwrist 45.6472
rhand 12.2868 -34.5075
rfingers 7.12502
rthumb 37.292 -60.4959
lclavicle -1.01877e-014 -2.22639e-014
lhumerus -44.0147 26.8777 70.291
lradius 23.0817
lwrist -27.1136
lhand -16.2427 -8.37068
lfingers 7.12502
lthumb 9.96598 21.3734
rfemur -6.43947 25.0339 22.8301
rtibia 2.14078
rfoot -12.9395 -27.3957
rtoes 4.70097
lfemur -0.351166 -48.551 -8.14908
ltibia -4.13907
lfoot -23.9168 55.1108
ltoes 13.0528
